<?xml version="1.0" encoding="utf-8"?>
<!-- Generator: Adobe Illustrator 27.0.0, SVG Export Plug-In . SVG Version: 6.00 Build 0)  -->
<svg version="1.1" id="Layer_1" xmlns="http://www.w3.org/2000/svg" xmlns:xlink="http://www.w3.org/1999/xlink" x="0px" y="0px"
	 viewBox="0 0 100 100" style="enable-background:new 0 0 100 100;" xml:space="preserve">
<style type="text/css">
	.st0{fill:#275627;}
	.st1{fill:#4DB24D;}
</style>
<path class="st0" d="M37.78,68.72c2.49-1.25,4.4-3.06,5.72-5.44c1.32-2.37,1.98-5.12,1.98-8.24V32.72c0-3.17-0.72-5.94-2.16-8.32
	c-1.44-2.37-3.46-4.22-6.05-5.54c-2.59-1.32-5.61-1.98-9.07-1.98c-3.46,0-6.48,0.66-9.07,1.98c-2.59,1.32-4.61,3.16-6.05,5.51
	c-1.44,2.35-2.16,5.13-2.16,8.35v22.32c0,3.12,0.72,5.88,2.16,8.28s3.46,4.26,6.05,5.58c2.53,1.29,5.46,1.95,8.82,1.97l7.45,12.25
	h11.23L37.78,68.72z M34.68,55.04c0,2.06-0.52,3.65-1.55,4.75c-1.03,1.11-2.67,1.66-4.93,1.66c-2.21,0-3.84-0.55-4.9-1.66
	c-1.05-1.1-1.58-2.69-1.58-4.75V32.72c0-2.11,0.56-3.72,1.69-4.83c1.13-1.1,2.73-1.65,4.79-1.65c2.11,0,3.72,0.55,4.82,1.65
	c1.11,1.11,1.66,2.72,1.66,4.83V55.04z"/>
<path class="st1" d="M71.4,77c-5.28,0-9.48-1.49-12.6-4.46c-3.12-2.98-4.68-7.01-4.68-12.1V39.56c0-5.14,1.56-9.18,4.68-12.13
	C61.92,24.48,66.12,23,71.4,23s9.48,1.48,12.6,4.43c3.12,2.95,4.68,7,4.68,12.13v20.88c0,5.09-1.56,9.12-4.68,12.1
	C80.88,75.51,76.68,77,71.4,77z M71.4,67.64c2.16,0,3.78-0.56,4.86-1.69c1.08-1.13,1.62-2.72,1.62-4.79V38.84
	c0-2.11-0.53-3.72-1.58-4.82c-1.06-1.1-2.69-1.66-4.9-1.66s-3.84,0.55-4.9,1.66c-1.06,1.1-1.58,2.71-1.58,4.82v22.32
	c0,2.06,0.54,3.66,1.62,4.79C67.62,67.08,69.24,67.64,71.4,67.64z"/>
</svg>
